<?xml version="1.0" standalone="no"?>
<!DOCTYPE svg PUBLIC "-//W3C//DTD SVG 20010904//EN"
 "http://www.w3.org/TR/2001/REC-SVG-20010904/DTD/svg10.dtd">
<svg version="1.0" xmlns="http://www.w3.org/2000/svg"
 width="100pt" height="100pt" viewBox="0 0 900.000000 900.000000"
 preserveAspectRatio="xMidYMid meet">
<metadata>
Created by potrace 1.16, written by Peter Selinger 2001-2019
</metadata>
<g transform="translate(0.000000,900.000000) scale(0.100000,-0.100000)"
fill="#6c757d" stroke="none">
<path d="M4350 8480 c-25 -10 -81 -33 -125 -50 -319 -124 -496 -379 -512 -736
-7 -148 11 -239 67 -352 70 -139 168 -239 370 -375 112 -76 105 -78 -206 -77
l-260 1 -155 -40 c-281 -72 -453 -121 -484 -139 -42 -25 -56 -60 -65 -170 -9
-105 2 -322 18 -362 13 -32 49 -66 87 -80 91 -35 701 -130 881 -137 l151 -6 5
-441 c4 -361 2 -450 -9 -489 -18 -62 -84 -128 -213 -217 -191 -131 -334 -304
-391 -475 -49 -144 -64 -237 -63 -385 2 -313 108 -502 434 -774 121 -101 185
-171 201 -219 10 -31 10 -55 1 -120 -7 -45 -24 -167 -38 -272 -27 -208 -50
-295 -95 -367 -78 -121 -217 -198 -360 -198 -67 0 -252 46 -362 89 -115 46
-183 82 -303 163 -162 108 -404 356 -404 414 0 7 63 27 153 49 83 21 158 42
165 48 6 5 12 19 12 31 0 17 -17 31 -72 61 -114 61 -265 198 -356 320 -115
155 -209 352 -282 586 -23 74 -44 141 -47 149 -8 23 -82 -67 -130 -158 -55
-103 -98 -229 -130 -381 -25 -116 -27 -145 -28 -361 0 -263 15 -365 77 -537
29 -81 120 -233 143 -239 9 -3 62 67 135 178 13 21 27 38 30 38 3 -1 20 -34
38 -74 89 -194 414 -566 688 -786 204 -164 378 -272 690 -428 267 -133 418
-227 574 -358 104 -87 155 -143 218 -236 42 -64 47 -68 82 -68 35 0 41 5 91
72 117 157 233 262 449 403 122 80 155 100 290 173 120 64 355 195 393 219 22
14 40 23 42 21 2 -2 13 -31 24 -65 39 -117 24 -221 -60 -390 -72 -146 -57
-157 82 -62 49 34 91 60 93 58 2 -2 10 -40 18 -84 13 -73 16 -80 37 -80 18 0
29 11 46 45 l23 45 -9 350 -9 350 27 20 c15 11 72 54 127 95 226 167 421 401
616 738 23 41 43 72 45 70 1 -2 35 -63 75 -135 39 -73 76 -133 80 -133 14 0
126 238 153 325 60 193 77 292 84 500 4 140 2 205 -11 292 -21 139 -64 292
-111 392 -36 75 -114 201 -126 201 -3 0 -18 -45 -33 -100 -15 -54 -43 -139
-62 -187 -144 -358 -331 -587 -620 -759 -82 -49 -94 -60 -88 -78 4 -11 11 -24
16 -27 6 -4 86 -24 179 -45 93 -21 169 -42 169 -47 0 -15 -166 -202 -239 -269
-166 -154 -345 -258 -510 -298 -47 -12 -89 7 -126 56 -126 168 -351 370 -602
543 -101 70 -103 73 -108 201 -11 260 -36 1472 -38 1815 l-2 430 32 65 c18 36
58 94 88 130 124 144 257 358 307 495 13 34 37 74 58 95 41 41 126 68 508 160
l212 52 0 289 c0 180 -4 289 -10 289 -5 0 -56 7 -112 15 -57 8 -121 16 -143
19 -80 10 -124 18 -327 58 l-207 41 -17 51 c-9 28 -30 80 -45 115 -35 77 -37
133 -6 177 112 157 140 220 158 364 24 191 -29 415 -136 582 -111 170 -214
239 -477 316 -98 29 -120 32 -240 31 -106 0 -142 -4 -178 -19z m475 -145 c221
-58 328 -139 409 -308 62 -129 80 -212 74 -340 -6 -119 -44 -244 -111 -370
-64 -120 -90 -86 -37 48 51 129 80 241 80 314 0 59 -4 73 -40 135 -22 38 -54
97 -70 131 -101 212 -252 305 -494 305 -194 0 -325 -59 -455 -204 -91 -103
-156 -272 -146 -386 2 -25 25 -95 54 -160 28 -63 48 -116 45 -119 -9 -9 -72
61 -98 108 -35 65 -56 173 -56 284 0 206 79 345 259 462 66 43 191 105 251
126 47 16 229 2 335 -26z m-203 -256 c241 -50 381 -248 348 -491 -6 -43 -13
-85 -16 -93 -4 -10 -36 -3 -137 33 -125 43 -137 45 -242 46 -101 0 -120 -4
-237 -41 -144 -45 -135 -47 -179 37 -19 36 -24 61 -24 125 0 75 3 85 40 154
77 142 218 234 367 240 15 1 51 -4 80 -10z m-23 -565 c41 -8 78 -17 83 -20 4
-3 8 -33 8 -67 0 -113 12 -197 27 -197 18 0 21 11 27 109 10 153 16 98 15
-135 -1 -189 -3 -216 -11 -154 -15 131 -17 140 -33 133 -12 -4 -15 -31 -15
-143 0 -157 5 -148 -88 -151 -73 -3 -85 11 -94 109 -9 105 -10 532 0 532 4 0
40 -7 81 -16z m408 -565 c18 -30 33 -58 33 -62 0 -9 -153 -8 -177 1 -7 2 -13
9 -13 16 0 15 102 106 115 102 5 -1 24 -27 42 -57z m-542 -139 c77 -6 176 -12
220 -15 44 -3 100 -8 125 -10 25 -3 72 -8 105 -11 60 -6 135 -30 135 -43 0 -4
-13 -28 -30 -54 -16 -26 -30 -49 -30 -51 0 -2 18 -11 40 -21 22 -10 40 -22 40
-26 0 -16 -70 -61 -107 -70 -25 -5 -70 -3 -135 7 -76 12 -109 13 -155 4 -32
-6 -130 -13 -218 -16 l-160 -5 -35 53 c-20 29 -44 54 -54 56 -11 3 -36 -13
-65 -41 -108 -105 -179 -102 -242 7 -44 77 -37 177 13 189 13 3 66 17 118 31
108 29 205 32 435 16z m-669 -92 c-3 -35 -8 -94 -11 -133 -3 -38 -8 -92 -11
-119 l-6 -49 -34 64 c-19 34 -38 67 -42 71 -5 5 -28 -7 -52 -27 -23 -20 -45
-34 -47 -32 -2 3 4 63 13 135 l17 131 66 6 c36 3 73 8 81 9 8 2 19 4 24 5 4 0
6 -27 2 -61z m1922 -18 c312 -52 350 -74 308 -175 -9 -21 -22 -35 -32 -35 -10
0 -112 -10 -226 -21 -115 -12 -212 -19 -215 -15 -7 7 -32 192 -33 244 0 17 5
32 11 32 6 0 90 -13 187 -30z m-2179 8 c0 -7 -6 -56 -12 -108 l-13 -95 -82 -3
c-45 -2 -82 0 -82 3 0 3 9 24 20 46 16 30 17 40 8 43 -27 9 -115 16 -120 10
-4 -3 1 -26 9 -50 8 -25 14 -46 12 -48 -11 -9 -209 -63 -214 -58 -9 9 -6 129
4 155 13 35 67 52 256 86 187 33 215 36 214 19z m1541 -731 c0 -8 -9 -49 -20
-91 -35 -138 -111 -253 -213 -321 l-50 -34 -3 -153 c-2 -84 -10 -234 -18 -333
-22 -259 -20 -365 10 -554 6 -36 4 -43 -7 -39 -8 3 -24 8 -36 12 l-23 7 0
-235 c0 -225 1 -236 19 -236 15 0 20 10 26 50 4 28 11 50 16 50 4 0 16 -24 25
-52 14 -44 18 -118 24 -433 5 -209 11 -403 15 -430 l7 -50 -46 -33 c-32 -23
-48 -43 -56 -70 -18 -68 -14 -72 47 -47 19 8 39 15 43 15 12 0 38 -80 45 -138
3 -30 2 -52 -3 -50 -45 18 -298 188 -316 212 -51 68 -49 17 -44 1449 4 736 8
1340 10 1343 3 2 66 -21 141 -51 75 -30 139 -55 142 -55 3 0 5 61 5 135 l0
134 73 4 c173 8 187 7 187 -6z m-952 -2009 c1 -385 -2 -678 -7 -678 -4 0 -42
22 -83 49 -183 119 -289 282 -337 518 -23 112 -27 215 -10 295 16 76 80 204
136 269 87 102 245 231 278 227 20 -3 20 -11 23 -680z m-1999 -659 c97 -361
274 -663 537 -920 252 -244 506 -385 809 -447 88 -19 89 -19 50 -27 -55 -11
-75 -22 -75 -44 0 -29 24 -42 78 -40 44 2 81 -11 130 -47 2 -1 -2 -11 -9 -22
-18 -29 -5 -52 30 -52 16 0 65 7 108 16 47 10 121 15 185 15 90 -2 113 1 147
18 22 12 46 19 53 16 7 -2 26 -9 42 -15 l28 -10 -38 -31 c-55 -44 -141 -85
-231 -111 -71 -21 -98 -23 -321 -23 -273 0 -248 -7 -283 85 -31 83 -44 93
-106 86 l-53 -6 -100 72 c-549 392 -856 796 -984 1293 -31 121 -56 303 -55
399 l1 71 18 -100 c10 -55 28 -134 39 -176z m4585 -500 c-117 -264 -197 -392
-355 -563 -102 -111 -335 -313 -413 -358 -185 -106 -231 -136 -269 -171 -24
-22 -110 -71 -202 -117 -126 -62 -179 -94 -250 -154 -74 -62 -98 -76 -135 -81
-119 -17 -238 -72 -440 -204 -50 -34 -98 -61 -106 -61 -12 0 -14 102 -14 654
0 360 3 661 6 670 3 9 10 16 15 16 9 0 69 -43 236 -167 69 -52 71 -55 66 -89
-5 -29 -2 -36 14 -40 10 -3 28 -21 38 -40 27 -51 118 -132 179 -160 30 -14 83
-31 118 -38 34 -8 76 -19 93 -25 33 -14 72 -7 98 16 20 19 23 72 5 96 -7 9
-85 47 -172 85 l-159 68 -63 155 c-35 85 -64 159 -64 166 0 7 8 17 18 22 16 8
62 -29 298 -245 l279 -255 63 5 c34 3 109 21 166 40 399 133 772 460 966 844
41 82 30 35 -16 -69z m-2064 -121 c107 -51 145 -84 160 -137 19 -70 18 -71
-96 -15 -119 59 -141 75 -160 121 -15 35 -19 87 -6 81 4 -2 50 -25 102 -50z"/>
</g>
</svg>