<?xml version="1.0" standalone="no"?>
<!DOCTYPE svg PUBLIC "-//W3C//DTD SVG 20010904//EN"
 "http://www.w3.org/TR/2001/REC-SVG-20010904/DTD/svg10.dtd">
<svg version="1.0" xmlns="http://www.w3.org/2000/svg"
 width="225.000000pt" height="225.000000pt" viewBox="0 0 225.000000 225.000000"
 preserveAspectRatio="xMidYMid meet">
<metadata>
Created by potrace 1.16, written by Peter Selinger 2001-2019
</metadata>
<g transform="translate(0.000000,225.000000) scale(0.100000,-0.100000)"
fill="rgb(212, 127, 29)" stroke="none">
<path d="M883 2240 c-92 -19 -149 -57 -225 -148 -17 -21 -35 -32 -52 -32 -36
0 -134 -38 -183 -71 -55 -38 -108 -101 -139 -166 -13 -29 -29 -53 -33 -53 -23
0 -117 -88 -152 -143 -56 -86 -72 -144 -75 -272 -2 -60 -6 -160 -10 -221 -7
-122 6 -193 52 -294 41 -90 98 -154 247 -279 l142 -119 48 -179 c26 -98 55
-189 65 -202 10 -13 33 -32 52 -43 33 -17 62 -18 510 -16 439 3 478 4 503 21
44 29 60 64 107 242 l44 168 137 113 c164 136 209 185 254 278 55 112 68 181
61 310 -4 61 -8 161 -10 221 -5 176 -61 294 -181 383 -42 31 -67 58 -82 91
-13 26 -39 66 -59 89 -63 74 -116 102 -281 151 -12 3 -36 26 -55 51 -87 116
-261 159 -397 99 -43 -19 -45 -19 -95 0 -65 24 -139 32 -193 21z m532 -90 c42
-19 85 -55 111 -95 14 -22 4 -79 -171 -927 -102 -497 -187 -907 -190 -913 -2
-5 -4 423 -4 952 l-1 963 24 15 c55 37 156 39 231 5z m-367 2 l33 -17 2 -948
c1 -521 -1 -939 -5 -930 -4 10 -89 413 -188 896 l-181 878 26 34 c31 42 79 79
120 93 48 17 155 13 193 -6z m-226 -1022 c97 -470 176 -861 175 -869 -2 -16
-657 1477 -657 1497 0 25 42 94 80 132 57 57 148 101 200 97 24 -2 25 -7 202
-857z m912 827 c30 -14 72 -43 95 -66 40 -40 81 -108 81 -133 0 -8 -148 -353
-330 -768 -181 -415 -330 -749 -330 -742 0 15 348 1709 356 1731 6 18 59 9
128 -22z m-1423 -327 c175 -396 617 -1415 615 -1417 -1 -2 -188 242 -415 542
l-412 546 -1 68 c-1 88 23 168 67 226 42 54 96 105 109 102 5 -2 22 -32 37
-67z m1720 23 c50 -46 99 -128 113 -187 4 -17 7 -61 7 -98 l0 -68 -402 -532
c-221 -293 -409 -540 -416 -548 -19 -20 -41 -71 310 731 162 371 302 692 311
712 8 20 18 37 21 37 3 0 29 -21 56 -47z m-1584 -933 c181 -239 333 -441 337
-449 8 -13 -147 114 -461 376 -175 147 -232 251 -240 443 -5 105 -5 105 15 85
11 -11 168 -216 349 -455z m1721 368 c-4 -76 -12 -121 -31 -172 -43 -115 -85
-165 -277 -324 -96 -80 -226 -189 -289 -241 -63 -52 -111 -88 -106 -80 9 13
149 199 542 717 85 111 156 202 160 202 3 0 3 -46 1 -102z m-1406 -900 c64
-54 120 -103 123 -108 8 -13 -185 -13 -219 0 -36 13 -51 42 -84 168 l-31 113
47 -37 c26 -21 100 -82 164 -136z m902 75 c-13 -49 -29 -105 -35 -125 -14 -55
-46 -68 -169 -68 -67 0 -99 3 -95 10 6 9 316 270 321 270 1 0 -9 -39 -22 -87z"/>
</g>
</svg>
