<svg xmlns="http://www.w3.org/2000/svg" width="75" height="75" viewBox="0 0 32 32"><g transform="translate(1287.186 -1422.434)"><path fill="#484666" d="M-1268.1855 1436.9805c-1.651 0-3 1.349-3 3 0 1.6509 1.349 3 3 3 1.6509 0 3-1.3491 3-3 0-1.651-1.3491-3-3-3zM-1271.1855 1423.4805c-2.7555 0-5 2.2445-5 5 0 2.7555 2.2445 5 5 5 2.7555 0 5-2.2445 5-5 0-2.7555-2.2445-5-5-5zM-1274.1855 1443.9805c-1.0987 0-2 .9013-2 2 0 1.0986.9013 2 2 2 1.0986 0 2-.9014 2-2 0-1.0987-.9014-2-2-2zM-1271.1855 1449.4805c-.8226 0-1.5.6775-1.5 1.5 0 .8225.6774 1.5 1.5 1.5.8225 0 1.5-.6775 1.5-1.5 0-.8225-.6775-1.5-1.5-1.5zM-1275.6855 1433.4805c-.8226 0-1.5.6775-1.5 1.5 0 .8225.6774 1.5 1.5 1.5.8225 0 1.5-.6775 1.5-1.5 0-.8225-.6775-1.5-1.5-1.5z" color="#000" font-family="sans-serif" font-weight="400" overflow="visible" white-space="normal" style="line-height:normal;font-variant-ligatures:normal;font-variant-position:normal;font-variant-caps:normal;font-variant-numeric:normal;font-variant-alternates:normal;font-feature-settings:normal;text-indent:0;text-align:start;text-decoration-line:none;text-decoration-style:solid;text-decoration-color:#000;text-transform:none;text-orientation:mixed;shape-padding:0;isolation:auto;mix-blend-mode:normal"/><path fill="#b1eaf1" style="line-height:normal;font-variant-ligatures:normal;font-variant-position:normal;font-variant-caps:normal;font-variant-numeric:normal;font-variant-alternates:normal;font-feature-settings:normal;text-indent:0;text-align:start;text-decoration-line:none;text-decoration-style:solid;text-decoration-color:#000;text-transform:none;text-orientation:mixed;shape-padding:0;isolation:auto;mix-blend-mode:normal" d="m -1271.1855,1424.4805 c -2.215,0 -4,1.7849 -4,4 0,2.215 1.785,4 4,4 2.2151,0 4,-1.785 4,-4 0,-2.2151 -1.7849,-4 -4,-4 z" color="#000" font-family="sans-serif" font-weight="400" overflow="visible" white-space="normal"/><path fill="#00bbd3" style="line-height:normal;font-variant-ligatures:normal;font-variant-position:normal;font-variant-caps:normal;font-variant-numeric:normal;font-variant-alternates:normal;font-feature-settings:normal;text-indent:0;text-align:start;text-decoration-line:none;text-decoration-style:solid;text-decoration-color:#000;text-transform:none;text-orientation:mixed;shape-padding:0;isolation:auto;mix-blend-mode:normal" d="m -1268.1855,1437.9805 c 1.1104,0 2,0.8895 2,2 0,1.1105 -0.8896,2 -2,2 -1.1105,0 -2,-0.8895 -2,-2 0,-1.1105 0.8895,-2 2,-2 z" color="#000" font-family="sans-serif" font-weight="400" overflow="visible" white-space="normal"/><path fill="#b1eaf1" style="line-height:normal;font-variant-ligatures:normal;font-variant-position:normal;font-variant-caps:normal;font-variant-numeric:normal;font-variant-alternates:normal;font-feature-settings:normal;text-indent:0;text-align:start;text-decoration-line:none;text-decoration-style:solid;text-decoration-color:#000;text-transform:none;text-orientation:mixed;shape-padding:0;isolation:auto;mix-blend-mode:normal" d="m -1274.1855,1444.9805 c 0.5582,0 1,0.4418 1,1 0,0.5582 -0.4418,1 -1,1 -0.5583,0 -1,-0.4418 -1,-1 0,-0.5582 0.4417,-1 1,-1 z" color="#000" font-family="sans-serif" font-weight="400" overflow="visible" white-space="normal"/><path fill="#00bbd3" style="line-height:normal;font-variant-ligatures:normal;font-variant-position:normal;font-variant-caps:normal;font-variant-numeric:normal;font-variant-alternates:normal;font-feature-settings:normal;text-indent:0;text-align:start;text-decoration-line:none;text-decoration-style:solid;text-decoration-color:#000;text-transform:none;text-orientation:mixed;shape-padding:0;isolation:auto;mix-blend-mode:normal" d="M-1271.1855 1450.4805c.282 0 .5.2179.5.5 0 .282-.218.5-.5.5-.2821 0-.5-.218-.5-.5 0-.2821.2179-.5.5-.5zM-1275.6855 1434.4805c.282 0 .5.2179.5.5 0 .282-.218.5-.5.5-.2821 0-.5-.218-.5-.5 0-.2821.2179-.5.5-.5z" color="#000" font-family="sans-serif" font-weight="400" overflow="visible" white-space="normal"/><path fill="#484666" style="line-height:normal;font-variant-ligatures:normal;font-variant-position:normal;font-variant-caps:normal;font-variant-numeric:normal;font-variant-alternates:normal;font-feature-settings:normal;text-indent:0;text-align:start;text-decoration-line:none;text-decoration-style:solid;text-decoration-color:#000;text-transform:none;text-orientation:mixed;shape-padding:0;isolation:auto;mix-blend-mode:normal" d="m -1270.4257,1425.4824 a 0.49999997,0.49999997 0 0 0 -0.4805,0.3477 0.49999997,0.49999997 0 0 0 0.3243,0.6289 c 0.7062,0.2258 1.2492,0.8373 1.4043,1.6113 a 0.49999997,0.49999997 0 0 0 0.5878,0.3926 0.49999997,0.49999997 0 0 0 0.3926,-0.5879 c -0.2236,-1.1161 -1.0162,-2.0289 -2.08,-2.3691 a 0.49999997,0.49999997 0 0 0 -0.1485,-0.024 z" color="#000" font-family="sans-serif" font-weight="400" overflow="visible" white-space="normal"/><g transform="matrix(4.00782 0 0 4.00782 3793.974 -4292.045)"><path fill="#fff" d="m -1263.7053,1426.45 c -0.4987,0 -0.8926,0.3939 -0.8926,0.8926 0,0.4988 0.3939,0.8926 0.8926,0.8926 0.054,0 0.1011,-0.02 0.1523,-0.029 -0.4211,-0.073 -0.7402,-0.4188 -0.7402,-0.8633 0,-0.4444 0.3191,-0.7898 0.7402,-0.8633 -0.051,-0.01 -0.098,-0.029 -0.1523,-0.029 z" color="#000" font-family="sans-serif" font-weight="400" opacity=".3" overflow="visible" white-space="normal" style="line-height:normal;font-variant-ligatures:normal;font-variant-position:normal;font-variant-caps:normal;font-variant-numeric:normal;font-variant-alternates:normal;font-feature-settings:normal;text-indent:0;text-align:start;text-decoration-line:none;text-decoration-style:solid;text-decoration-color:#000;text-transform:none;text-orientation:mixed;shape-padding:0;isolation:auto;mix-blend-mode:normal"/></g><g transform="translate(-10.365 18.638)"><path fill="#fff" style="line-height:normal;font-variant-ligatures:normal;font-variant-position:normal;font-variant-caps:normal;font-variant-numeric:normal;font-variant-alternates:normal;font-feature-settings:normal;text-indent:0;text-align:start;text-decoration-line:none;text-decoration-style:solid;text-decoration-color:#000;text-transform:none;text-orientation:mixed;shape-padding:0;isolation:auto;mix-blend-mode:normal" d="m -1263.6391,1426.45 c -0.4987,0 -0.8926,0.3939 -0.8926,0.8926 0,0.4988 0.3939,0.8926 0.8926,0.8926 0.054,0 0.1011,-0.02 0.1523,-0.029 -0.4211,-0.073 -0.7402,-0.4188 -0.7402,-0.8633 0,-0.4444 0.3191,-0.7898 0.7402,-0.8633 -0.051,-0.01 -0.098,-0.029 -0.1523,-0.029 z" color="#000" font-family="sans-serif" font-weight="400" opacity=".3" overflow="visible" white-space="normal"/></g><g transform="matrix(2.0039 0 0 2.0039 1264.395 -1420.282)"><path fill="#fff" d="m -1263.6391,1426.45 c -0.4987,0 -0.8926,0.3939 -0.8926,0.8926 0,0.4988 0.3939,0.8926 0.8926,0.8926 0.054,0 0.1011,-0.02 0.1523,-0.029 -0.4211,-0.073 -0.7402,-0.4188 -0.7402,-0.8633 0,-0.4444 0.3191,-0.7898 0.7402,-0.8633 -0.051,-0.01 -0.098,-0.029 -0.1523,-0.029 z" color="#000" font-family="sans-serif" font-weight="400" opacity=".2" overflow="visible" white-space="normal" style="line-height:normal;font-variant-ligatures:normal;font-variant-position:normal;font-variant-caps:normal;font-variant-numeric:normal;font-variant-alternates:normal;font-feature-settings:normal;text-indent:0;text-align:start;text-decoration-line:none;text-decoration-style:solid;text-decoration-color:#000;text-transform:none;text-orientation:mixed;shape-padding:0;isolation:auto;mix-blend-mode:normal"/></g><g transform="matrix(.50098 0 0 .50098 -638.04 735.915)"><path fill="#fff" d="m -1263.6391,1426.45 c -0.4987,0 -0.8926,0.3939 -0.8926,0.8926 0,0.4988 0.3939,0.8926 0.8926,0.8926 0.054,0 0.1011,-0.02 0.1523,-0.029 -0.4211,-0.073 -0.7402,-0.4188 -0.7402,-0.8633 0,-0.4444 0.3191,-0.7898 0.7402,-0.8633 -0.051,-0.01 -0.098,-0.029 -0.1523,-0.029 z" color="#000" font-family="sans-serif" font-weight="400" opacity=".2" overflow="visible" white-space="normal" style="line-height:normal;font-variant-ligatures:normal;font-variant-position:normal;font-variant-caps:normal;font-variant-numeric:normal;font-variant-alternates:normal;font-feature-settings:normal;text-indent:0;text-align:start;text-decoration-line:none;text-decoration-style:solid;text-decoration-color:#000;text-transform:none;text-orientation:mixed;shape-padding:0;isolation:auto;mix-blend-mode:normal"/></g><g transform="matrix(.50098 0 0 .50098 -642.54 719.915)"><path fill="#fff" d="m -1263.6391,1426.45 c -0.4987,0 -0.8926,0.3939 -0.8926,0.8926 0,0.4988 0.3939,0.8926 0.8926,0.8926 0.054,0 0.1011,-0.02 0.1523,-0.029 -0.4211,-0.073 -0.7402,-0.4188 -0.7402,-0.8633 0,-0.4444 0.3191,-0.7898 0.7402,-0.8633 -0.051,-0.01 -0.098,-0.029 -0.1523,-0.029 z" color="#000" font-family="sans-serif" font-weight="400" opacity=".2" overflow="visible" white-space="normal" style="line-height:normal;font-variant-ligatures:normal;font-variant-position:normal;font-variant-caps:normal;font-variant-numeric:normal;font-variant-alternates:normal;font-feature-settings:normal;text-indent:0;text-align:start;text-decoration-line:none;text-decoration-style:solid;text-decoration-color:#000;text-transform:none;text-orientation:mixed;shape-padding:0;isolation:auto;mix-blend-mode:normal"/></g></g></svg>